<?xml version="1.0" encoding="utf-8"?>
<!-- Generator: Adobe Illustrator 19.0.1, SVG Export Plug-In . SVG Version: 6.00 Build 0)  -->
<svg version="1.1" id="Layer_1" xmlns="http://www.w3.org/2000/svg" xmlns:xlink="http://www.w3.org/1999/xlink" x="0px" y="0px"
	 viewBox="0 0 657.5 578.7" style="enable-background:new 0 0 657.5 578.7;" xml:space="preserve">
<style type="text/css">
	.st0{fill:url(#SVGID_1_);}
	.st1{fill:url(#SVGID_2_);}
</style>
<linearGradient id="SVGID_1_" gradientUnits="userSpaceOnUse" x1="377.9594" y1="472.2307" x2="657.4669" y2="472.2307">
	<stop  offset="0" style="stop-color:#BCBEC0"/>
	<stop  offset="1" style="stop-color:#414042"/>
</linearGradient>
<path class="st0" d="M638.4,440.3c-2-5.4-4-10.5-6.2-15.4c-20.6,34.3-60.1,40.5-78.7,42.4c-99.7,10.4-161.8-79.6-175.6-101.6
	c21.8,207,238.4,263.1,279.1,168.4c0-0.2,0.1-0.3,0.1-0.5C659.6,488.9,647.4,465.4,638.4,440.3z"/>
<linearGradient id="SVGID_2_" gradientUnits="userSpaceOnUse" x1="9.094947e-013" y1="182.8664" x2="377.9594" y2="182.8664">
	<stop  offset="0" style="stop-color:#414042"/>
	<stop  offset="1" style="stop-color:#BCBEC0"/>
</linearGradient>
<path class="st1" d="M0.1,230.5c0,0-0.8,12.4,2.2,32.3c20.2-34.2,50.2-62,101.7-62c141.8,0,214.5,98.2,274,164.9
	C328.4,27,188-18.1,125.3,5.1c0,0-0.4,0.2-1,0.5C112.6,12.8,0,86.1,0.1,230.5z"/>
</svg>
